<mxfile host="Electron" modified="2024-01-27T12:31:04.964Z" agent="Mozilla/5.0 (Windows NT 10.0; Win64; x64) AppleWebKit/537.36 (KHTML, like Gecko) draw.io/22.1.21 Chrome/120.0.6099.109 Electron/28.1.0 Safari/537.36" etag="IdZCZFXsbmIfDdma5Sjo" version="22.1.21" type="device">
  <diagram name="PÃ¡gina-1" id="Y6L9n2RA8vwU2MMcEcZ-">
    <mxGraphModel dx="1434" dy="844" grid="1" gridSize="10" guides="1" tooltips="1" connect="1" arrows="1" fold="1" page="1" pageScale="1" pageWidth="827" pageHeight="1169" math="0" shadow="0">
      <root>
        <mxCell id="0" />
        <mxCell id="1" parent="0" />
        <mxCell id="p3acEHzhMLvB9pCIP0ga-4" style="edgeStyle=orthogonalEdgeStyle;rounded=0;orthogonalLoop=1;jettySize=auto;html=1;entryX=0.5;entryY=0;entryDx=0;entryDy=0;" parent="1" source="p3acEHzhMLvB9pCIP0ga-1" target="p3acEHzhMLvB9pCIP0ga-3" edge="1">
          <mxGeometry relative="1" as="geometry" />
        </mxCell>
        <mxCell id="p3acEHzhMLvB9pCIP0ga-1" value="" style="rounded=0;whiteSpace=wrap;html=1;" parent="1" vertex="1">
          <mxGeometry x="140" y="110" width="120" height="60" as="geometry" />
        </mxCell>
        <mxCell id="p3acEHzhMLvB9pCIP0ga-2" value="E_W8_CMD" style="text;html=1;align=center;verticalAlign=middle;resizable=0;points=[];autosize=1;strokeColor=none;fillColor=none;" parent="1" vertex="1">
          <mxGeometry x="210" y="80" width="90" height="30" as="geometry" />
        </mxCell>
        <mxCell id="p3acEHzhMLvB9pCIP0ga-29" style="edgeStyle=orthogonalEdgeStyle;rounded=0;orthogonalLoop=1;jettySize=auto;html=1;" parent="1" source="p3acEHzhMLvB9pCIP0ga-3" target="p3acEHzhMLvB9pCIP0ga-8" edge="1">
          <mxGeometry relative="1" as="geometry" />
        </mxCell>
        <mxCell id="p3acEHzhMLvB9pCIP0ga-3" value="DEL_SCREEN" style="rhombus;whiteSpace=wrap;html=1;" parent="1" vertex="1">
          <mxGeometry x="150" y="220" width="100" height="100" as="geometry" />
        </mxCell>
        <mxCell id="p3acEHzhMLvB9pCIP0ga-6" style="edgeStyle=orthogonalEdgeStyle;rounded=0;orthogonalLoop=1;jettySize=auto;html=1;entryX=1;entryY=0.5;entryDx=0;entryDy=0;" parent="1" source="p3acEHzhMLvB9pCIP0ga-5" target="p3acEHzhMLvB9pCIP0ga-1" edge="1">
          <mxGeometry relative="1" as="geometry">
            <Array as="points">
              <mxPoint x="530" y="140" />
            </Array>
          </mxGeometry>
        </mxCell>
        <mxCell id="p3acEHzhMLvB9pCIP0ga-34" style="edgeStyle=orthogonalEdgeStyle;rounded=0;orthogonalLoop=1;jettySize=auto;html=1;" parent="1" source="p3acEHzhMLvB9pCIP0ga-5" target="p3acEHzhMLvB9pCIP0ga-32" edge="1">
          <mxGeometry relative="1" as="geometry" />
        </mxCell>
        <mxCell id="p3acEHzhMLvB9pCIP0ga-5" value="DRAW_FIG" style="rhombus;whiteSpace=wrap;html=1;" parent="1" vertex="1">
          <mxGeometry x="480" y="220" width="100" height="100" as="geometry" />
        </mxCell>
        <mxCell id="p3acEHzhMLvB9pCIP0ga-7" style="edgeStyle=orthogonalEdgeStyle;rounded=0;orthogonalLoop=1;jettySize=auto;html=1;entryX=-0.042;entryY=0.49;entryDx=0;entryDy=0;entryPerimeter=0;" parent="1" source="p3acEHzhMLvB9pCIP0ga-3" target="p3acEHzhMLvB9pCIP0ga-5" edge="1">
          <mxGeometry relative="1" as="geometry" />
        </mxCell>
        <mxCell id="p3acEHzhMLvB9pCIP0ga-15" style="edgeStyle=orthogonalEdgeStyle;rounded=0;orthogonalLoop=1;jettySize=auto;html=1;entryX=0.5;entryY=0;entryDx=0;entryDy=0;" parent="1" source="p3acEHzhMLvB9pCIP0ga-8" target="p3acEHzhMLvB9pCIP0ga-13" edge="1">
          <mxGeometry relative="1" as="geometry" />
        </mxCell>
        <mxCell id="p3acEHzhMLvB9pCIP0ga-8" value="OP_SETCURSOR" style="rounded=0;whiteSpace=wrap;html=1;" parent="1" vertex="1">
          <mxGeometry x="140" y="500" width="120" height="60" as="geometry" />
        </mxCell>
        <mxCell id="p3acEHzhMLvB9pCIP0ga-9" value="E_DELCURSOR" style="text;html=1;align=center;verticalAlign=middle;resizable=0;points=[];autosize=1;strokeColor=none;fillColor=none;" parent="1" vertex="1">
          <mxGeometry x="200" y="470" width="110" height="30" as="geometry" />
        </mxCell>
        <mxCell id="p3acEHzhMLvB9pCIP0ga-22" style="edgeStyle=orthogonalEdgeStyle;rounded=0;orthogonalLoop=1;jettySize=auto;html=1;entryX=0.5;entryY=0;entryDx=0;entryDy=0;" parent="1" source="p3acEHzhMLvB9pCIP0ga-10" target="p3acEHzhMLvB9pCIP0ga-21" edge="1">
          <mxGeometry relative="1" as="geometry" />
        </mxCell>
        <mxCell id="p3acEHzhMLvB9pCIP0ga-10" value="OP_DRAWCOLOUR" style="rounded=0;whiteSpace=wrap;html=1;" parent="1" vertex="1">
          <mxGeometry x="140" y="770" width="120" height="60" as="geometry" />
        </mxCell>
        <mxCell id="p3acEHzhMLvB9pCIP0ga-11" value="E_DELCOLOR" style="text;html=1;align=center;verticalAlign=middle;resizable=0;points=[];autosize=1;strokeColor=none;fillColor=none;" parent="1" vertex="1">
          <mxGeometry x="205" y="740" width="100" height="30" as="geometry" />
        </mxCell>
        <mxCell id="p3acEHzhMLvB9pCIP0ga-16" style="edgeStyle=orthogonalEdgeStyle;rounded=0;orthogonalLoop=1;jettySize=auto;html=1;entryX=0;entryY=0.5;entryDx=0;entryDy=0;" parent="1" source="p3acEHzhMLvB9pCIP0ga-13" target="p3acEHzhMLvB9pCIP0ga-8" edge="1">
          <mxGeometry relative="1" as="geometry">
            <Array as="points">
              <mxPoint x="110" y="660" />
              <mxPoint x="110" y="530" />
            </Array>
          </mxGeometry>
        </mxCell>
        <mxCell id="p3acEHzhMLvB9pCIP0ga-19" style="edgeStyle=orthogonalEdgeStyle;rounded=0;orthogonalLoop=1;jettySize=auto;html=1;" parent="1" source="p3acEHzhMLvB9pCIP0ga-13" target="p3acEHzhMLvB9pCIP0ga-10" edge="1">
          <mxGeometry relative="1" as="geometry" />
        </mxCell>
        <mxCell id="p3acEHzhMLvB9pCIP0ga-13" value="DONE_CURSOR" style="rhombus;whiteSpace=wrap;html=1;" parent="1" vertex="1">
          <mxGeometry x="140" y="600" width="120" height="120" as="geometry" />
        </mxCell>
        <mxCell id="p3acEHzhMLvB9pCIP0ga-18" value="0" style="text;html=1;align=center;verticalAlign=middle;resizable=0;points=[];autosize=1;strokeColor=none;fillColor=none;" parent="1" vertex="1">
          <mxGeometry x="120" y="630" width="30" height="30" as="geometry" />
        </mxCell>
        <mxCell id="p3acEHzhMLvB9pCIP0ga-20" value="1" style="text;html=1;align=center;verticalAlign=middle;resizable=0;points=[];autosize=1;strokeColor=none;fillColor=none;" parent="1" vertex="1">
          <mxGeometry x="175" y="715" width="30" height="30" as="geometry" />
        </mxCell>
        <mxCell id="p3acEHzhMLvB9pCIP0ga-23" style="edgeStyle=orthogonalEdgeStyle;rounded=0;orthogonalLoop=1;jettySize=auto;html=1;entryX=0;entryY=0.5;entryDx=0;entryDy=0;" parent="1" source="p3acEHzhMLvB9pCIP0ga-21" target="p3acEHzhMLvB9pCIP0ga-10" edge="1">
          <mxGeometry relative="1" as="geometry">
            <Array as="points">
              <mxPoint x="80" y="940" />
              <mxPoint x="80" y="800" />
            </Array>
          </mxGeometry>
        </mxCell>
        <mxCell id="p3acEHzhMLvB9pCIP0ga-25" style="edgeStyle=orthogonalEdgeStyle;rounded=0;orthogonalLoop=1;jettySize=auto;html=1;" parent="1" source="p3acEHzhMLvB9pCIP0ga-21" edge="1">
          <mxGeometry relative="1" as="geometry">
            <mxPoint x="200" y="1070" as="targetPoint" />
          </mxGeometry>
        </mxCell>
        <mxCell id="p3acEHzhMLvB9pCIP0ga-21" value="DONE_COLOUR" style="rhombus;whiteSpace=wrap;html=1;" parent="1" vertex="1">
          <mxGeometry x="140" y="880" width="120" height="120" as="geometry" />
        </mxCell>
        <mxCell id="p3acEHzhMLvB9pCIP0ga-24" value="0" style="text;html=1;align=center;verticalAlign=middle;resizable=0;points=[];autosize=1;strokeColor=none;fillColor=none;" parent="1" vertex="1">
          <mxGeometry x="105" y="908" width="30" height="30" as="geometry" />
        </mxCell>
        <mxCell id="p3acEHzhMLvB9pCIP0ga-26" value="E_W8_CMD" style="ellipse;whiteSpace=wrap;html=1;aspect=fixed;" parent="1" vertex="1">
          <mxGeometry x="160" y="1070" width="80" height="80" as="geometry" />
        </mxCell>
        <mxCell id="p3acEHzhMLvB9pCIP0ga-27" value="MUX_CLR" style="ellipse;whiteSpace=wrap;html=1;" parent="1" vertex="1">
          <mxGeometry x="135" y="380" width="120" height="50" as="geometry" />
        </mxCell>
        <mxCell id="p3acEHzhMLvB9pCIP0ga-31" value="MUX_PR&lt;br&gt;LD_TRIA" style="ellipse;whiteSpace=wrap;html=1;" parent="1" vertex="1">
          <mxGeometry x="470" y="380" width="120" height="50" as="geometry" />
        </mxCell>
        <mxCell id="p3acEHzhMLvB9pCIP0ga-38" style="edgeStyle=orthogonalEdgeStyle;rounded=0;orthogonalLoop=1;jettySize=auto;html=1;" parent="1" source="p3acEHzhMLvB9pCIP0ga-32" target="p3acEHzhMLvB9pCIP0ga-35" edge="1">
          <mxGeometry relative="1" as="geometry" />
        </mxCell>
        <mxCell id="p3acEHzhMLvB9pCIP0ga-32" value="OP_SETCURSOR" style="rounded=0;whiteSpace=wrap;html=1;" parent="1" vertex="1">
          <mxGeometry x="470" y="500" width="120" height="60" as="geometry" />
        </mxCell>
        <mxCell id="p3acEHzhMLvB9pCIP0ga-33" value="E_FIGCURSOR" style="text;html=1;align=center;verticalAlign=middle;resizable=0;points=[];autosize=1;strokeColor=none;fillColor=none;" parent="1" vertex="1">
          <mxGeometry x="530" y="470" width="110" height="30" as="geometry" />
        </mxCell>
        <mxCell id="p3acEHzhMLvB9pCIP0ga-36" style="edgeStyle=orthogonalEdgeStyle;rounded=0;orthogonalLoop=1;jettySize=auto;html=1;entryX=0;entryY=0.5;entryDx=0;entryDy=0;" parent="1" source="p3acEHzhMLvB9pCIP0ga-35" target="p3acEHzhMLvB9pCIP0ga-32" edge="1">
          <mxGeometry relative="1" as="geometry">
            <Array as="points">
              <mxPoint x="430" y="645" />
              <mxPoint x="430" y="530" />
            </Array>
          </mxGeometry>
        </mxCell>
        <mxCell id="p3acEHzhMLvB9pCIP0ga-41" style="edgeStyle=orthogonalEdgeStyle;rounded=0;orthogonalLoop=1;jettySize=auto;html=1;" parent="1" source="p3acEHzhMLvB9pCIP0ga-62" target="p3acEHzhMLvB9pCIP0ga-39" edge="1">
          <mxGeometry relative="1" as="geometry" />
        </mxCell>
        <mxCell id="p3acEHzhMLvB9pCIP0ga-35" value="DONE_CURSOR" style="rhombus;whiteSpace=wrap;html=1;" parent="1" vertex="1">
          <mxGeometry x="470" y="585" width="120" height="120" as="geometry" />
        </mxCell>
        <mxCell id="p3acEHzhMLvB9pCIP0ga-37" value="0" style="text;html=1;align=center;verticalAlign=middle;resizable=0;points=[];autosize=1;strokeColor=none;fillColor=none;" parent="1" vertex="1">
          <mxGeometry x="450" y="610" width="30" height="30" as="geometry" />
        </mxCell>
        <mxCell id="p3acEHzhMLvB9pCIP0ga-44" style="edgeStyle=orthogonalEdgeStyle;rounded=0;orthogonalLoop=1;jettySize=auto;html=1;entryX=0.5;entryY=0;entryDx=0;entryDy=0;" parent="1" source="p3acEHzhMLvB9pCIP0ga-39" target="p3acEHzhMLvB9pCIP0ga-43" edge="1">
          <mxGeometry relative="1" as="geometry" />
        </mxCell>
        <mxCell id="p3acEHzhMLvB9pCIP0ga-39" value="OP_DRAWCOLOUR" style="rounded=0;whiteSpace=wrap;html=1;" parent="1" vertex="1">
          <mxGeometry x="470" y="810" width="120" height="60" as="geometry" />
        </mxCell>
        <mxCell id="p3acEHzhMLvB9pCIP0ga-40" value="E_FIGCOLOUR" style="text;html=1;align=center;verticalAlign=middle;resizable=0;points=[];autosize=1;strokeColor=none;fillColor=none;" parent="1" vertex="1">
          <mxGeometry x="535" y="785" width="110" height="30" as="geometry" />
        </mxCell>
        <mxCell id="p3acEHzhMLvB9pCIP0ga-42" value="1" style="text;html=1;align=center;verticalAlign=middle;resizable=0;points=[];autosize=1;strokeColor=none;fillColor=none;" parent="1" vertex="1">
          <mxGeometry x="530" y="710" width="30" height="30" as="geometry" />
        </mxCell>
        <mxCell id="p3acEHzhMLvB9pCIP0ga-45" style="edgeStyle=orthogonalEdgeStyle;rounded=0;orthogonalLoop=1;jettySize=auto;html=1;entryX=0;entryY=0.5;entryDx=0;entryDy=0;" parent="1" source="p3acEHzhMLvB9pCIP0ga-43" target="p3acEHzhMLvB9pCIP0ga-39" edge="1">
          <mxGeometry relative="1" as="geometry">
            <Array as="points">
              <mxPoint x="440" y="960" />
              <mxPoint x="440" y="840" />
            </Array>
          </mxGeometry>
        </mxCell>
        <mxCell id="p3acEHzhMLvB9pCIP0ga-47" style="edgeStyle=orthogonalEdgeStyle;rounded=0;orthogonalLoop=1;jettySize=auto;html=1;" parent="1" source="p3acEHzhMLvB9pCIP0ga-43" edge="1">
          <mxGeometry relative="1" as="geometry">
            <mxPoint x="530" y="1080" as="targetPoint" />
          </mxGeometry>
        </mxCell>
        <mxCell id="p3acEHzhMLvB9pCIP0ga-43" value="DONE_COLOUR" style="rhombus;whiteSpace=wrap;html=1;" parent="1" vertex="1">
          <mxGeometry x="470" y="900" width="120" height="120" as="geometry" />
        </mxCell>
        <mxCell id="p3acEHzhMLvB9pCIP0ga-46" value="0" style="text;html=1;align=center;verticalAlign=middle;resizable=0;points=[];autosize=1;strokeColor=none;fillColor=none;" parent="1" vertex="1">
          <mxGeometry x="440" y="928" width="30" height="30" as="geometry" />
        </mxCell>
        <mxCell id="p3acEHzhMLvB9pCIP0ga-49" style="edgeStyle=orthogonalEdgeStyle;rounded=0;orthogonalLoop=1;jettySize=auto;html=1;entryX=0;entryY=0.25;entryDx=0;entryDy=0;" parent="1" source="p3acEHzhMLvB9pCIP0ga-48" target="p3acEHzhMLvB9pCIP0ga-32" edge="1">
          <mxGeometry relative="1" as="geometry">
            <Array as="points">
              <mxPoint x="380" y="1140" />
              <mxPoint x="380" y="515" />
            </Array>
          </mxGeometry>
        </mxCell>
        <mxCell id="p3acEHzhMLvB9pCIP0ga-52" style="edgeStyle=orthogonalEdgeStyle;rounded=0;orthogonalLoop=1;jettySize=auto;html=1;entryX=0;entryY=0.5;entryDx=0;entryDy=0;" parent="1" source="p3acEHzhMLvB9pCIP0ga-48" target="p3acEHzhMLvB9pCIP0ga-51" edge="1">
          <mxGeometry relative="1" as="geometry" />
        </mxCell>
        <mxCell id="p3acEHzhMLvB9pCIP0ga-48" value="END_TRIA" style="rhombus;whiteSpace=wrap;html=1;" parent="1" vertex="1">
          <mxGeometry x="470" y="1080" width="120" height="120" as="geometry" />
        </mxCell>
        <mxCell id="p3acEHzhMLvB9pCIP0ga-50" value="0" style="text;html=1;align=center;verticalAlign=middle;resizable=0;points=[];autosize=1;strokeColor=none;fillColor=none;" parent="1" vertex="1">
          <mxGeometry x="440" y="1110" width="30" height="30" as="geometry" />
        </mxCell>
        <mxCell id="p3acEHzhMLvB9pCIP0ga-51" value="E_W8_CMD" style="ellipse;whiteSpace=wrap;html=1;aspect=fixed;" parent="1" vertex="1">
          <mxGeometry x="630" y="1100" width="80" height="80" as="geometry" />
        </mxCell>
        <mxCell id="p3acEHzhMLvB9pCIP0ga-53" value="1" style="text;html=1;align=center;verticalAlign=middle;resizable=0;points=[];autosize=1;strokeColor=none;fillColor=none;" parent="1" vertex="1">
          <mxGeometry x="590" y="1110" width="30" height="30" as="geometry" />
        </mxCell>
        <mxCell id="p3acEHzhMLvB9pCIP0ga-54" value="1" style="text;html=1;align=center;verticalAlign=middle;resizable=0;points=[];autosize=1;strokeColor=none;fillColor=none;" parent="1" vertex="1">
          <mxGeometry x="530" y="1018" width="30" height="30" as="geometry" />
        </mxCell>
        <mxCell id="p3acEHzhMLvB9pCIP0ga-55" value="0" style="text;html=1;align=center;verticalAlign=middle;resizable=0;points=[];autosize=1;strokeColor=none;fillColor=none;" parent="1" vertex="1">
          <mxGeometry x="250" y="240" width="30" height="30" as="geometry" />
        </mxCell>
        <mxCell id="p3acEHzhMLvB9pCIP0ga-56" value="0" style="text;html=1;align=center;verticalAlign=middle;resizable=0;points=[];autosize=1;strokeColor=none;fillColor=none;" parent="1" vertex="1">
          <mxGeometry x="535" y="188" width="30" height="30" as="geometry" />
        </mxCell>
        <mxCell id="p3acEHzhMLvB9pCIP0ga-57" value="1" style="text;html=1;align=center;verticalAlign=middle;resizable=0;points=[];autosize=1;strokeColor=none;fillColor=none;" parent="1" vertex="1">
          <mxGeometry x="530" y="310" width="30" height="30" as="geometry" />
        </mxCell>
        <mxCell id="p3acEHzhMLvB9pCIP0ga-58" value="1" style="text;html=1;align=center;verticalAlign=middle;resizable=0;points=[];autosize=1;strokeColor=none;fillColor=none;" parent="1" vertex="1">
          <mxGeometry x="200" y="310" width="30" height="30" as="geometry" />
        </mxCell>
        <mxCell id="p3acEHzhMLvB9pCIP0ga-59" value="DEC_TRIA_PIX" style="ellipse;whiteSpace=wrap;html=1;" parent="1" vertex="1">
          <mxGeometry x="320" y="760" width="120" height="50" as="geometry" />
        </mxCell>
        <mxCell id="p3acEHzhMLvB9pCIP0ga-63" value="" style="edgeStyle=orthogonalEdgeStyle;rounded=0;orthogonalLoop=1;jettySize=auto;html=1;" parent="1" source="p3acEHzhMLvB9pCIP0ga-35" target="p3acEHzhMLvB9pCIP0ga-62" edge="1">
          <mxGeometry relative="1" as="geometry">
            <mxPoint x="530" y="705" as="sourcePoint" />
            <mxPoint x="530" y="810" as="targetPoint" />
          </mxGeometry>
        </mxCell>
        <mxCell id="p3acEHzhMLvB9pCIP0ga-62" value="INC_XYTRIA" style="ellipse;whiteSpace=wrap;html=1;" parent="1" vertex="1">
          <mxGeometry x="470" y="735" width="120" height="50" as="geometry" />
        </mxCell>
        <mxCell id="W1QrKqHfw874j2ITa_pN-1" value="1" style="text;html=1;align=center;verticalAlign=middle;resizable=0;points=[];autosize=1;strokeColor=none;fillColor=none;" vertex="1" parent="1">
          <mxGeometry x="205" y="998" width="30" height="30" as="geometry" />
        </mxCell>
      </root>
    </mxGraphModel>
  </diagram>
</mxfile>
